<svg xmlns="http://www.w3.org/2000/svg" width="32" height="32"><g transform="translate(0 -1020.362)"><circle cx="657.054" cy="437.094" r="15.268" fill="#50b748" fill-rule="evenodd" transform="translate(-672.561 578.308) scale(1.04795)"/><path style="line-height:normal;text-indent:0;text-align:start;text-decoration-line:none;text-transform:none;block-progression:tb" fill="#10a711" d="M22.48 30.605a16 16 0 0 0 .778-.345 16 16 0 0 0 1.387-.797 16 16 0 0 0 1.3-.93 16 16 0 0 0 1.201-1.054 16 16 0 0 0 1.092-1.172 16 16 0 0 0 .967-1.272 16 16 0 0 0 .836-1.365 16 16 0 0 0 .695-1.44 16 16 0 0 0 .45-1.228L19.729 9.547A5.271 5.271 0 0 0 15.986 8a5.27 5.27 0 0 0-5.275 5.158.772.772 0 0 1 .012.143c0 2.045.896 3.922 2.095 5.83.986 1.568 2.094 3.189 3.057 4.869l6.605 6.605z" color="#000" font-family="sans-serif" font-weight="400" transform="translate(0 1020.362)"/><path style="line-height:normal;text-indent:0;text-align:start;text-decoration-line:none;text-transform:none;block-progression:tb" fill="#fff" d="M7.992 3c1.94 0 3.5 1.561 3.5 3.5 0 .036.003.072.01.107-.03 1.308-.636 2.52-1.45 3.75-.687 1.041-1.463 2.116-2.134 3.233-.637-1.112-1.371-2.185-2.023-3.223-.794-1.263-1.387-2.505-1.387-3.86a.5.5 0 0 0-.008-.093A3.488 3.488 0 0 1 7.992 3Zm0 2.004c-.822 0-1.5.677-1.5 1.5 0 .822.678 1.5 1.5 1.5.823 0 1.5-.678 1.5-1.5 0-.823-.677-1.5-1.5-1.5zm0 1c.282 0 .5.218.5.5 0 .282-.218.5-.5.5a.493.493 0 0 1-.5-.5c0-.282.218-.5.5-.5z" color="#000" font-family="sans-serif" font-weight="400" overflow="visible" transform="translate(3.911 1023.83) scale(1.51088)"/></g></svg>