<svg width="286" height="249" viewBox="0 0 286 249" fill="none" xmlns="http://www.w3.org/2000/svg">
<path d="M228.5 27L188.5 7.99915L207.5 25.5876C207.5 25.5876 216.49 29.2578 244.49 55.6694C274.644 84.1128 282.556 125.825 275.844 158.435C271.427 179.901 254.393 209.946 250 215.999C245.607 222.052 237.37 229.514 234.5 232.499C226.939 240.368 202.827 252.499 217.163 247.499C231.5 242.499 237.438 234.867 244.49 228.488C277.006 199.074 285.039 157.732 285.039 117.329C287.072 141.478 286.546 161.552 275.773 188.776C265 215.999 270.159 203 255.8 222.052C241.441 241.105 258.5 222.052 258.5 222.052L267.287 211.286C296.326 162.047 287.864 78.8066 263 55.6694C238.136 32.5322 236.85 34.3995 228.5 27Z" fill="url(#paint0_linear_103_10)"/>
<path d="M8.99999 97.9991L4.5 116.499L0 134.399H1.62161L5.49999 134.999L14.5 96.9992C29.867 43.9005 86.515 2.69947 142 6.49918C153 8.49915 167.5 10.76 179.5 13.9992C186 16.76 207.5 25.5876 207.5 25.5876L188.5 7.99915L179.5 4.99918L169.5 2.99915L153.5 0.999149C142 -0.500858 126.342 -0.317943 114.5 1.58868C75.9314 7.79857 40.8858 33.3568 21.6505 66.9992C16.2726 76.405 13 87.4991 8.99999 97.9991Z" fill="url(#paint1_linear_103_10)"/>
<path d="M191.482 118.633L195.482 121.435L174.085 128.728L178.482 130.499C181.482 129.345 191.713 124.766 197.268 126.328C203.266 128.014 203.957 139.355 202.967 143.935C198.982 162.373 198.982 162.999 181.482 183.999L183.482 185.999C198.982 170.903 204.482 163.499 205.982 143.435C205.982 134.999 204.097 129.493 203.482 122.435L220.482 118.435L200.906 119.254L191.482 118.633Z" fill="url(#paint2_linear_103_10)"/>
<path d="M195.482 121.435L191.482 118.633C186.94 117.193 163.189 115.871 163.189 109.983C163.189 104.274 185.888 87.7974 185.888 87.7974C185.888 87.7974 187.914 86.4494 188 86.4364C187.501 86.5118 184.482 86.4992 184.482 86.4992C184.482 86.4992 169 98.9992 163.04 104.317C160.67 106.612 157.76 110.45 160.59 113.569C165.369 118.836 195.482 121.435 195.482 121.435Z" fill="url(#paint3_linear_103_10)"/>
<path d="M188.482 38.4992L183.561 42.4208C183.561 42.4208 192.482 40.1453 195.482 41.4365C213.482 45.1453 203 68.4992 195.482 75.9364C194 78.4992 186.982 84.4982 184.482 86.4992L185.888 87.7974L186.879 87.1483L187.87 86.4992L188 86.4364L191.5 83.4992H191.482C201.982 75.4364 220.915 47.6235 199.481 39.3927C196.07 38.0828 188.482 38.4992 188.482 38.4992Z" fill="url(#paint4_linear_103_10)"/>
<path d="M183.482 185.999L181.482 183.999C173.982 188.999 159.961 196.088 151.482 199.999C134.865 206.779 115.905 210.887 97.7046 209.675C75.9407 208.226 75.2338 195.312 88.018 181.328C91.5448 177.47 95.4272 173.996 99.6997 170.903L96.7071 192.701C105.961 187.582 100.766 171.75 107.958 164.578C134.482 149.499 106.925 164.578 165.482 135.836C172.839 132.917 171.982 132.999 178.482 130.499L174.085 128.728C171.092 129.676 158.316 135.973 155.482 136.999C126.482 149.999 126.482 149.999 107.68 158.582C116.12 130.324 129.071 105.465 145.89 80.8672C157.37 64.0778 164.367 51.7523 183.561 42.4208L188.482 38.4992C175.49 39.5837 165.149 50.8436 157.571 60.0168C140.034 81.2482 128.85 105.16 114.663 128.254L121.761 97.9266L139.601 32.5322C134.33 32.0474 134.078 36.9999 132.987 41.0619C130.446 50.5315 127.962 60.0797 125.224 69.4942C118.855 91.3994 113.856 113.771 108.049 135.836C103.69 156.999 105.482 153.499 101.477 162.373C95.5541 175.497 68.442 184.939 74.3319 203.126C77.7056 213.544 94.2372 214.499 103.69 214.499C125.963 214.499 149.742 207.076 168.529 195.851C174.223 192.449 177.971 190.432 183.482 185.999Z" fill="url(#paint5_linear_103_10)"/>
<defs>
<linearGradient id="paint0_linear_103_10" x1="296.5" y1="-13" x2="11.5" y2="213" gradientUnits="userSpaceOnUse">
<stop stop-color="#94C34E"/>
<stop offset="1" stop-color="#539842"/>
</linearGradient>
<linearGradient id="paint1_linear_103_10" x1="296.5" y1="-13" x2="11.5" y2="213" gradientUnits="userSpaceOnUse">
<stop stop-color="#94C34E"/>
<stop offset="1" stop-color="#539842"/>
</linearGradient>
<linearGradient id="paint2_linear_103_10" x1="296.5" y1="-13" x2="11.5" y2="213" gradientUnits="userSpaceOnUse">
<stop stop-color="#94C34E"/>
<stop offset="1" stop-color="#539842"/>
</linearGradient>
<linearGradient id="paint3_linear_103_10" x1="296.5" y1="-13" x2="11.5" y2="213" gradientUnits="userSpaceOnUse">
<stop stop-color="#94C34E"/>
<stop offset="1" stop-color="#539842"/>
</linearGradient>
<linearGradient id="paint4_linear_103_10" x1="296.5" y1="-13" x2="11.5" y2="213" gradientUnits="userSpaceOnUse">
<stop stop-color="#94C34E"/>
<stop offset="1" stop-color="#539842"/>
</linearGradient>
<linearGradient id="paint5_linear_103_10" x1="296.5" y1="-13" x2="11.5" y2="213" gradientUnits="userSpaceOnUse">
<stop stop-color="#94C34E"/>
<stop offset="1" stop-color="#539842"/>
</linearGradient>
</defs>
</svg>
