<svg xmlns="http://www.w3.org/2000/svg" width="512" height="512" xml:space="preserve"><path fill="#656D78" d="M228.002 471.966c0 15.467-12.533 27.996-27.996 27.996s-27.996-12.529-27.996-27.996c0-15.458 12.533-27.995 27.996-27.995s27.996 12.537 27.996 27.995zM435.969 471.966c0 15.467-12.528 27.996-27.995 27.996-15.466 0-27.995-12.529-27.995-27.996 0-15.458 12.529-27.995 27.995-27.995 15.466 0 27.995 12.537 27.995 27.995z"/><path fill="#0fef3c" d="m112.021 132.021-.32.079 59.99 222.768 304.272-22.879 31.995-199.968z"/><path fill="#FFF" d="m491.96 132.021-31.995 199.968-288.59 21.699.316 1.18 304.272-22.879 31.995-199.968z" opacity=".3"/><path d="m127.698 132.1.321-.079h-15.998l-.32.079 59.99 222.768 15.681-1.18z" opacity=".2"/><path fill="#E6E9ED" d="M172.011 419.975h287.954c4.398 0 7.999 3.601 7.999 7.999 0 4.397-3.601 7.998-7.999 7.998H172.011c-22.074 0-39.993-14.317-39.993-31.994h.16l23.598-48.953L68.028 28.038H12.037c-4.398 0-7.999-3.601-7.999-7.999s3.601-7.999 7.999-7.999h67.349l32.315 120.06 59.99 222.769-23.676 49.109c0 8.88 12.959 15.997 23.996 15.997z"/><path d="M200.007 443.971c-10.061 0-18.81 5.351-23.746 13.318 12.662 30.565 19.958 30.675 23.746 30.675 9.424 0 17.688-15.701 23.707-30.745-4.944-7.929-13.677-13.248-23.707-13.248zM407.989 443.971c-10.061 0-18.81 5.351-23.746 13.318 12.67 30.565 19.966 30.675 23.746 30.675 9.429 0 17.692-15.701 23.715-30.745-4.952-7.929-13.684-13.248-23.715-13.248z" opacity=".2"/><path fill="#CCD1D9" d="M176.76 435.972s15.248 43.993 23.247 43.993 22.872-43.993 22.872-43.993H176.76zM384.915 435.972s15.247 43.993 23.246 43.993 22.872-43.993 22.872-43.993h-46.118z"/><path fill="#3A3847" d="M171.687 358.867a3.999 3.999 0 0 1-3.983-3.702 3.996 3.996 0 0 1 3.687-4.289l301.12-22.637 30.762-192.218h-391.25c-2.21 0-3.999-1.789-3.999-4s1.789-4 3.999-4H507.96c1.171 0 2.28.512 3.046 1.406a3.994 3.994 0 0 1 .906 3.226l-31.995 199.968a4.01 4.01 0 0 1-3.655 3.358L171.994 358.85a3.552 3.552 0 0 1-.307.017zM156.01 359.984a3.995 3.995 0 0 1-3.878-3.039l-.238-.96L64.166 29.073a3.996 3.996 0 0 1 2.828-4.898c2.109-.562 4.328.688 4.898 2.828l88.005 328.021a4 4 0 0 1-3.887 4.96z"/><path fill="#3A3847" d="M171.687 358.867a4.006 4.006 0 0 1-3.858-2.96L75.523 13.08a4 4 0 0 1 7.726-2.077l92.305 342.827a3.994 3.994 0 0 1-2.824 4.897c-.348.093-.695.14-1.043.14zM68.028 32.038H12.037c-2.21 0-4-1.789-4-4s1.789-4 4-4h55.991c2.211 0 4 1.789 4 4s-1.789 4-4 4z"/><path fill="#3A3847" d="M79.386 16.04H12.037c-2.21 0-4-1.789-4-4a3.997 3.997 0 0 1 4-3.999h67.349a3.999 3.999 0 1 1 0 7.999z"/><path fill="#3A3847" d="M12.037 32.038C5.421 32.038.039 26.656.039 20.04S5.421 8.042 12.037 8.042c2.21 0 4 1.789 4 3.999 0 2.211-1.789 4-4 4-2.207 0-4 1.792-4 4a4.002 4.002 0 0 0 4 3.999c2.21 0 4 1.789 4 4s-1.789 3.998-4 3.998zM475.963 184.013H150.734c-2.211 0-4-1.789-4-4s1.789-4 4-4h325.229c2.211 0 3.999 1.789 3.999 4s-1.788 4-3.999 4zM459.965 240.004H174.73c-2.211 0-4-1.789-4-4a3.997 3.997 0 0 1 4-3.999h285.235c2.211 0 4 1.789 4 3.999 0 2.211-1.789 4-4 4zM443.968 295.995H190.727c-2.21 0-3.999-1.789-3.999-4s1.789-3.999 3.999-3.999h253.241c2.211 0 3.999 1.788 3.999 3.999s-1.788 4-3.999 4zM148.011 407.977a3.95 3.95 0 0 1-1.734-.398 3.991 3.991 0 0 1-1.862-5.335l23.676-49.117a3.991 3.991 0 0 1 5.339-1.859 3.992 3.992 0 0 1 1.863 5.336l-23.676 49.116a3.995 3.995 0 0 1-3.606 2.257zM132.174 407.977a3.95 3.95 0 0 1-1.734-.398 3.99 3.99 0 0 1-1.863-5.335l23.598-48.953 7.272 3.328-23.668 49.101a3.994 3.994 0 0 1-3.605 2.257zM459.965 439.972H172.011a3.997 3.997 0 0 1-3.999-4 3.997 3.997 0 0 1 3.999-3.999h287.954c2.211 0 4 1.789 4 3.999 0 2.211-1.789 4-4 4zM459.965 423.974H172.011a3.997 3.997 0 0 1-3.999-3.999 3.997 3.997 0 0 1 3.999-3.999h287.954c2.211 0 4 1.788 4 3.999a3.997 3.997 0 0 1-4 3.999z"/><path fill="#3A3847" d="M172.011 439.972c-24.258 0-43.993-16.146-43.993-35.994 0-2.211 1.789-4 4-4a3.997 3.997 0 0 1 3.999 4c0 15.435 16.146 27.995 35.994 27.995 2.211 0 4 1.789 4 3.999 0 2.211-1.789 4-4 4z"/><path fill="#3A3847" d="M172.011 423.974c-13.217 0-27.995-8.553-27.995-19.996 0-2.211 1.789-4 3.999-4 2.211 0 4 1.789 4 4 0 5.835 10.28 11.998 19.997 11.998a3.999 3.999 0 1 1-.001 7.998zM459.965 439.972a3.997 3.997 0 0 1-3.999-4 3.997 3.997 0 0 1 3.999-3.999c2.203 0 4-1.789 4-3.999 0-2.203-1.797-4-4-4a3.997 3.997 0 0 1-3.999-3.999 3.997 3.997 0 0 1 3.999-3.999c6.617 0 11.999 5.382 11.999 11.998 0 6.615-5.382 11.998-11.999 11.998zM427.971 311.992c-2.211 0-4-1.789-4-3.999V164.016c0-2.21 1.789-3.999 4-3.999s3.999 1.789 3.999 3.999v143.977a3.997 3.997 0 0 1-3.999 3.999zM371.979 311.992a3.997 3.997 0 0 1-3.999-3.999V164.016a3.997 3.997 0 0 1 3.999-3.999 3.997 3.997 0 0 1 3.999 3.999v143.977a3.996 3.996 0 0 1-3.999 3.999zM315.988 311.992a3.997 3.997 0 0 1-3.999-3.999V164.016a3.997 3.997 0 0 1 3.999-3.999c2.211 0 4 1.789 4 3.999v143.977a3.997 3.997 0 0 1-4 3.999zM259.998 311.992c-2.211 0-4-1.789-4-3.999V164.016c0-2.21 1.79-3.999 4-3.999a3.997 3.997 0 0 1 3.999 3.999v143.977a3.997 3.997 0 0 1-3.999 3.999zM204.006 311.992c-2.211 0-4-1.789-4-3.999V164.016a3.997 3.997 0 0 1 4-3.999 3.997 3.997 0 0 1 3.999 3.999v143.977a3.997 3.997 0 0 1-3.999 3.999zM200.007 503.961c-17.642 0-31.995-14.349-31.995-31.995 0-3.21.453-6.217 1.382-9.193a3.975 3.975 0 0 1 5.011-2.617 3.991 3.991 0 0 1 2.62 5.008c-.683 2.187-1.015 4.413-1.015 6.803 0 13.232 10.764 23.996 23.996 23.996s23.996-10.764 23.996-23.996c0-2.39-.332-4.616-1.015-6.803a3.992 3.992 0 0 1 2.62-5.008 3.988 3.988 0 0 1 5.011 2.617c.929 2.977 1.382 5.983 1.382 9.193.001 17.646-14.352 31.995-31.993 31.995z"/><path fill="#3A3847" d="M200.007 483.964c-8.995 0-17.903-21.059-23.789-38.728a3.993 3.993 0 0 1 2.527-5.054 3.984 3.984 0 0 1 5.058 2.522c5.511 16.528 13.221 32.089 16.494 33.3 2.695-1.211 10.405-16.771 15.916-33.3a3.983 3.983 0 0 1 5.058-2.522 3.993 3.993 0 0 1 2.527 5.054c-5.888 17.669-14.797 38.728-23.791 38.728zM407.974 503.961c-17.638 0-31.995-14.349-31.995-31.995 0-3.21.453-6.217 1.383-9.193a3.974 3.974 0 0 1 5.008-2.617 3.997 3.997 0 0 1 2.624 5.008c-.688 2.187-1.016 4.413-1.016 6.803 0 13.232 10.765 23.996 23.996 23.996 13.232 0 23.996-10.764 23.996-23.996 0-2.335-.312-4.601-.968-6.912a3.986 3.986 0 0 1 2.765-4.93c2.093-.602 4.327.625 4.929 2.758a32.841 32.841 0 0 1 1.273 9.084c0 17.645-14.358 31.994-31.995 31.994z"/><path fill="#3A3847" d="M407.974 483.964c-8.998 0-17.903-21.059-23.793-38.728a4 4 0 0 1 2.531-5.054 3.995 3.995 0 0 1 5.062 2.522c5.507 16.528 13.217 32.089 16.489 33.3 2.695-1.211 10.405-16.771 15.911-33.3a3.993 3.993 0 0 1 5.062-2.522 3.998 3.998 0 0 1 2.53 5.054c-5.889 17.669-14.793 38.728-23.792 38.728z"/></svg>