<?xml version="1.0" encoding="iso-8859-1"?>
<!-- Generator: Adobe Illustrator 19.0.0, SVG Export Plug-In . SVG Version: 6.00 Build 0)  -->
<svg xmlns="http://www.w3.org/2000/svg" xmlns:xlink="http://www.w3.org/1999/xlink" version="1.1" id="Layer_1" x="0px" y="0px" viewBox="0 0 512 512" style="enable-background:new 0 0 512 512;" xml:space="preserve">
<path style="fill:#DDDDDD;" d="M500.564,245.181L276.662,38.213c-11.496-10.785-29.826-10.788-41.329,0L11.434,245.181  c-7.816,7.332-2.634,20.548,8.126,20.548h76.149v199.218c0,11.011,8.923,19.935,19.931,19.935h280.717  c11.01,0,19.936-8.923,19.936-19.935V265.729h76.142C503.16,265.729,508.409,252.543,500.564,245.181z"/>
<path style="fill:#AAAFAC;" d="M19.56,265.729h51.805L235.334,114.16c5.559-5.213,12.9-8.086,20.666-8.086  c7.766,0,15.106,2.872,20.663,8.086l163.97,151.569h51.801c10.726,0,15.975-13.186,8.13-20.548l-223.9-206.968  c-11.496-10.785-29.826-10.788-41.329,0L11.434,245.181C3.619,252.513,8.801,265.729,19.56,265.729z"/>
<path style="fill:#68564C;" d="M301.821,311.911H210.18c-11.679,0-21.147,9.47-21.147,21.149c0,18.124,0,133.817,0,151.822h133.933  c0-18.009,0-133.696,0-151.822C322.966,321.38,313.496,311.911,301.821,311.911z"/>
<path style="fill:#5E493B;" d="M224.711,333.059c0-11.679,9.467-21.149,21.147-21.149h-35.679c-11.679,0-21.147,9.47-21.147,21.149  c0,18.124,0,133.817,0,151.822h35.679C224.711,466.873,224.711,351.184,224.711,333.059z"/>
<path style="fill:#0fef3c;" d="M500.564,245.181L276.662,35.215c-11.496-10.785-29.826-10.788-41.329,0L11.434,245.181  c-7.816,7.332-2.634,20.548,8.126,20.548h17.285L255.999,59.992l219.153,205.737h17.282  C503.16,265.729,508.409,252.543,500.564,245.181z"/>
<path d="M227.105,406.258h0.209c4.143,0,7.5-3.357,7.5-7.5c0-4.143-3.357-7.5-7.5-7.5h-0.209c-4.143,0-7.5,3.357-7.5,7.5  C219.605,402.901,222.962,406.258,227.105,406.258z"/>
<path d="M323.012,272.729h-134.02c-4.143,0-7.5,3.357-7.5,7.5c0,4.143,3.357,7.5,7.5,7.5h134.02c4.143,0,7.5-3.357,7.5-7.5  C330.511,276.086,327.153,272.729,323.012,272.729z"/>
<path d="M323.012,243.126h-134.02c-4.143,0-7.5,3.358-7.5,7.5c0,4.142,3.357,7.5,7.5,7.5h134.02c4.143,0,7.5-3.358,7.5-7.5  C330.511,246.484,327.153,243.126,323.012,243.126z"/>
<path d="M505.854,239.704c-0.001,0-0.002-0.001-0.003-0.002L281.81,29.601c-14.387-13.498-37.219-13.504-51.616-0.001L6.151,239.702  c-12.799,12.006-4.289,33.531,13.261,33.531c7.476,0,61.127,0,68.697,0v191.844c0,15.135,12.311,27.447,27.443,27.447  c7.108,0,273.237,0,280.896,0c15.135,0,27.447-12.312,27.447-27.447V273.233c7.566,0,61.219,0,68.691,0  C510.131,273.233,518.648,251.712,505.854,239.704z M492.588,258.234h-14.325L366.194,153.026  c-3.021-2.835-7.768-2.684-10.601,0.335c-2.835,3.02-2.686,7.766,0.335,10.601l100.42,94.272h-39.952c-4.143,0-7.5,3.357-7.5,7.5  v199.344c0,6.864-5.585,12.448-12.448,12.448h-65.937V333.106c0-15.805-12.855-28.662-28.658-28.662h-91.7  c-15.804,0-28.66,12.857-28.66,28.662v95.222c0,4.143,3.357,7.5,7.5,7.5s7.5-3.357,7.5-7.5v-95.222  c0-7.534,6.129-13.663,13.661-13.663h91.7c7.532,0,13.659,6.13,13.659,13.663v144.42H196.491v-23.655c0-4.143-3.357-7.5-7.5-7.5  s-7.5,3.357-7.5,7.5v23.655h-65.939c-6.862,0-12.444-5.585-12.444-12.448V265.733c0-4.143-3.357-7.5-7.5-7.5H55.654L256.001,70.151  l81.716,76.715c3.021,2.834,7.767,2.687,10.601-0.334c2.835-3.02,2.686-7.766-0.334-10.6l-86.85-81.534  c-2.887-2.71-7.382-2.71-10.266,0L33.739,258.234H19.412c-3.968,0-5.899-4.874-3-7.592l224.041-210.1  c8.623-8.086,22.472-8.09,31.095,0L495.59,250.64C498.502,253.373,496.541,258.234,492.588,258.234z"/>
<g>
</g>
<g>
</g>
<g>
</g>
<g>
</g>
<g>
</g>
<g>
</g>
<g>
</g>
<g>
</g>
<g>
</g>
<g>
</g>
<g>
</g>
<g>
</g>
<g>
</g>
<g>
</g>
<g>
</g>
</svg>
