<?xml version="1.0" encoding="iso-8859-1"?>
<!-- Generator: Adobe Illustrator 19.0.1, SVG Export Plug-In . SVG Version: 6.00 Build 0)  -->
<svg version="1.1" xmlns="http://www.w3.org/2000/svg" xmlns:xlink="http://www.w3.org/1999/xlink" x="0px" y="0px"
	 viewBox="0 0 128 128" style="enable-background:new 0 0 128 128;" xml:space="preserve">
<g id="_x38_">
	<g id="pin_18_">
		<path style="fill:#BDDB75;" d="M66.441,4.883c-25.941,0-46.971,21.03-46.971,46.971C19.47,95.71,64,126.498,64,126.498
			s46.971-32.875,46.971-78.306C110.971,22.251,92.383,4.883,66.441,4.883z M65.221,85.5c-20.604,0-37.307-16.703-37.307-37.308
			c0-20.603,16.703-37.307,37.307-37.307c20.604,0,37.306,16.704,37.306,37.307C102.527,68.797,85.824,85.5,65.221,85.5z"/>
		<path style="fill:#AAD15E;" d="M64,126.498c0,0,46.971-32.875,46.971-78.306c0-25.941-19.485-44.454-46.971-43.247l0,7.161
			c20.604,0,36.086,15.483,36.086,36.087c0,20.604-15.482,36.087-36.086,36.087V126.498z"/>
		<path style="fill:#8BBFC8;" d="M64.006,12.181c-19.895,0-36.006,16.124-36.006,36.006c0,19.895,16.111,36.006,36.006,36.006
			c19.883,0,36.006-16.111,36.006-36.006C100.012,28.305,83.888,12.181,64.006,12.181z M82.985,52.74l-32.04,2.746l-5.322-18.272
			h40.913L82.985,52.74z"/>
		<path style="fill:#1E1E1E;" d="M63.983,128l-0.706-0.517c-0.474-0.348-47.469-35.325-47.469-79.29C15.808,21.619,37.427,0,64,0
			s48.192,21.619,48.192,48.192c0,45.54-47.016,78.973-47.492,79.306L63.983,128z M64,2.441c-25.226,0-45.751,20.524-45.751,45.751
			c0,39.797,39.927,72.252,45.766,76.782c5.874-4.371,45.735-35.576,45.735-76.782C109.751,22.965,89.226,2.441,64,2.441z
			 M64,85.421c-20.527,0-37.227-16.7-37.227-37.229c0-20.527,16.7-37.227,37.227-37.227s37.227,16.7,37.227,37.227
			C101.227,68.72,84.527,85.421,64,85.421z M64,13.406c-19.181,0-34.786,15.605-34.786,34.786C29.214,67.374,44.819,82.98,64,82.98
			s34.786-15.606,34.786-34.788C98.786,29.011,83.181,13.406,64,13.406z"/>
	</g>
	<g id="icon_18_">
		<polygon style="fill:#E7CB22;" points="50.293,37.216 86.539,37.216 83.394,52.741 55.011,55.49 		"/>
		<path style="fill:#FC726D;" d="M51.427,65.961c0-2.288,1.855-4.142,4.142-4.142s4.142,1.855,4.142,4.142
			c0,2.288-1.855,4.142-4.142,4.142S51.427,68.249,51.427,65.961z M78.057,70.104c2.288,0,4.143-1.855,4.143-4.142
			c0-2.288-1.855-4.142-4.143-4.142s-4.142,1.855-4.142,4.142C73.915,68.249,75.769,70.104,78.057,70.104z"/>
		<path style="fill:#1E1E1E;" d="M78.057,71.325c-2.957,0-5.363-2.405-5.363-5.363c0-2.491,1.707-4.591,4.012-5.191H56.92
			c2.305,0.6,4.012,2.7,4.012,5.191c0,2.958-2.405,5.363-5.363,5.363s-5.363-2.405-5.363-5.363c0-2.491,1.707-4.591,4.012-5.191
			h-2.613l-8.581-28.405h-5.308v-2.441h7.12l1.477,4.888h41.733l-4.05,19.065L52.94,56.745l0.478,1.584H83.58v2.441h-4.173
			c2.306,0.6,4.013,2.7,4.013,5.191C83.42,68.919,81.014,71.325,78.057,71.325z M78.057,63.04c-1.61,0-2.921,1.311-2.921,2.922
			c0,1.611,1.311,2.922,2.921,2.922c1.612,0,2.923-1.311,2.923-2.922C80.979,64.35,79.668,63.04,78.057,63.04z M55.569,63.04
			c-1.61,0-2.921,1.311-2.921,2.922c0,1.611,1.311,2.922,2.921,2.922s2.921-1.311,2.921-2.922
			C58.491,64.35,57.18,63.04,55.569,63.04z M47.052,37.254l5.168,17.107l29.762-2.749l3.051-14.358H47.052z"/>
	</g>
</g>
<g id="Layer_1">
</g>
</svg>
