<svg version="1.1" id="Layer_1" xmlns="http://www.w3.org/2000/svg" x="0" y="0" viewBox="0 -1 34 34" style="enable-background:new 0 0 32 32" xml:space="preserve"><style>.st1{fill:#333}</style><path class="st1" d="M11.5 22C5.71 22 1 17.29 1 11.5S5.71 1 11.5 1 22 5.71 22 11.5 17.29 22 11.5 22zm0-19C6.813 3 3 6.813 3 11.5S6.813 20 11.5 20s8.5-3.813 8.5-8.5S16.187 3 11.5 3z"/><path d="M6 12.5a1 1 0 0 1-1-1C5 7.916 7.916 5 11.5 5a1 1 0 1 1 0 2A4.505 4.505 0 0 0 7 11.5a1 1 0 0 1-1 1z" style="fill:#20f020"/><path class="st1" d="M28 31.17a2.988 2.988 0 0 1-2.121-.877l-9.388-9.388a.999.999 0 1 1 1.414-1.414l9.388 9.388a.999.999 0 0 0 1.414 0l.172-.172a1 1 0 0 0 0-1.414l-9.388-9.388a.999.999 0 1 1 1.414-1.414l9.388 9.388a3.002 3.002 0 0 1 0 4.242l-.172.172A2.988 2.988 0 0 1 28 31.17z"/></svg>