<svg xmlns="http://www.w3.org/2000/svg" viewBox="0 0 512 512" style="enable-background:new 0 0 512 512" xml:space="preserve"><path style="fill:#88dce5" d="M128.968 239.177c0-52.597 33.619-95.814 79.712-121.563C106.639 97.892 8.148 158.478 8.148 241.561c0 49.982 35.679 90.525 82.29 111.241-16.437 18.734-31.169 29.457-31.339 29.579-6.784 4.889-3.325 15.685 5.068 15.685 58.697 0 110.777-10.707 155.101-31.847-55.619-26.686-90.3-74.473-90.3-127.042z"/><path style="fill:#74c4c4" d="M184.225 347.94C82.2 347.94 9.381 255.357 40.582 164.755c-58.08 60.652-36.255 149.776 49.856 188.047-16.437 18.734-31.169 29.457-31.339 29.579-6.784 4.889-3.325 15.685 5.068 15.685 58.697 0 110.777-10.707 155.101-31.847-11.08-5.316-21.313-11.483-30.623-18.345-1.469.041-2.94.066-4.42.066z"/><path style="fill:#45ce73" d="M447.666 133.19c-35.444-27.55-82.425-42.724-132.286-42.724-102.344 0-188.41 64.977-188.41 148.712 0 59.785 44.845 113.399 114.344 136.806 55.054 30.227 121.396 45.55 197.208 45.55a10.09 10.09 0 0 0 9.603-6.991 10.091 10.091 0 0 0-3.699-11.288c-.197-.142-17.364-12.633-36.515-34.461 109.746-48.782 128.432-166.666 39.755-235.604z"/><circle style="fill:#f5f5f5" cx="241.263" cy="245.254" r="17.479"/><circle style="fill:#f5f5f5" cx="312.14" cy="245.254" r="17.479"/><circle style="fill:#f5f5f5" cx="383.026" cy="245.254" r="17.479"/><path style="fill:#34b75c" d="M468.31 326.128c-123.869 69.918-297.871-.069-297.871-121.133 0-31.928 12.792-62.093 35.296-86.839-45.98 26.005-78.766 69.129-78.766 121.023 0 59.785 44.845 113.399 114.344 136.806 55.054 30.227 121.396 45.55 197.208 45.55a10.09 10.09 0 0 0 9.603-6.991 10.091 10.091 0 0 0-3.699-11.288c-.197-.142-17.364-12.633-36.515-34.461 23.796-10.581 44.387-25.126 60.4-42.667z"/><path d="M217.332 245.266c0 13.75 11.188 24.938 24.94 24.938 13.751 0 24.94-11.187 24.94-24.938s-11.188-24.94-24.94-24.94-24.94 11.189-24.94 24.94zm34.911 0c0 5.496-4.472 9.968-9.97 9.968s-9.97-4.472-9.97-9.968c0-5.497 4.472-9.97 9.97-9.97s9.97 4.473 9.97 9.97zM288.121 245.266c0 13.75 11.189 24.938 24.942 24.938 13.75 0 24.938-11.187 24.938-24.938s-11.187-24.94-24.938-24.94c-13.752 0-24.942 11.189-24.942 24.94zm34.911 0c0 5.496-4.471 9.968-9.968 9.968-5.499 0-9.972-4.472-9.972-9.968 0-5.497 4.473-9.97 9.972-9.97 5.496 0 9.968 4.473 9.968 9.97zM358.91 245.266c0 13.75 11.188 24.938 24.94 24.938s24.94-11.187 24.94-24.938-11.188-24.94-24.94-24.94-24.94 11.189-24.94 24.94zm34.91 0c0 5.496-4.472 9.968-9.97 9.968s-9.97-4.472-9.97-9.968c0-5.497 4.472-9.97 9.97-9.97s9.97 4.473 9.97 9.97z"/><path d="M468.635 141.118a7.485 7.485 0 0 0-10.5 10.669c68.273 67.202 44.036 167.112-52.478 210.011-4.607 2.048-5.912 7.986-2.587 11.776 19.861 22.638 37.551 35.432 37.712 35.548 2.034 1.467.997 4.7-1.517 4.7-124.288 0-187.386-42.686-194.549-45.096-121.363-40.874-148.947-168.893-44.709-237.478 69.697-45.818 172.182-43.722 238.747 4.242a7.485 7.485 0 0 0 10.449-1.698 7.484 7.484 0 0 0-1.697-10.448c-35.92-25.883-82.52-40.137-131.214-40.137-39.711 0-77.687 9.369-109.828 26.759C100.733 90.994 0 154.491 0 241.581c0 49.54 32.738 90.503 77.323 113.473-12.821 13.382-23.228 21.007-23.332 21.082-12.668 9.129-6.19 29.222 9.436 29.222 33.509 0 65.288-3.489 94.453-10.37a7.485 7.485 0 0 0-3.438-14.57c-28.039 6.616-58.661 9.97-91.014 9.97-1.121 0-1.608-1.441-.671-2.118.631-.456 15.63-11.399 32.533-30.665 3.325-3.789 2.022-9.726-2.587-11.776-43.706-19.424-77.733-57.321-77.733-104.248 0-71.876 80.194-127.216 171.473-119.206-94.518 66.845-85.079 185.388 14.735 243.113a297.48 297.48 0 0 1-22.654 8.265 7.484 7.484 0 0 0-4.849 9.409 7.481 7.481 0 0 0 9.409 4.849c12.153-3.886 23.98-8.486 35.218-13.676a219.472 219.472 0 0 0 21.006 8.365c55.975 30.584 123.249 46.093 199.958 46.093 17.018 0 24.047-21.873 10.281-31.805-.146-.105-12.939-9.46-28.511-25.92 99.135-50.073 120.675-158.02 47.599-229.95z"/></svg>